<svg width="538" height="630" viewBox="0 0 538 630" fill="none" xmlns="http://www.w3.org/2000/svg">
<g clip-path="url(#clip0_33_2396)">
<path d="M273.826 83.1223C312.155 59.3461 399.549 181.982 330.425 252.87C315.053 268.632 310.492 258.993 290.382 262.307C279.055 264.172 274.443 240.27 223.501 255.238C190.011 265.079 194.912 219.127 147.41 229.849C43.6995 253.248 183.345 76.6081 273.838 83.1223H273.826Z" fill="black"/>
<path fill-rule="evenodd" clip-rule="evenodd" d="M282.23 82.8199C276.8 92.2321 262.486 94.3111 249.433 90.2539C235.447 85.9069 228.189 70.6987 233.922 57.2293C237.4 49.0519 243.826 42.0085 253.427 38.2537C263.028 34.4989 273.725 38.5183 278.564 47.5273C284.7 58.9555 286.892 74.7685 282.243 82.8325L282.23 82.8199Z" fill="black"/>
<path d="M322.457 161.525C323.953 167.123 323.789 172.205 322.364 176.181C320.28 181.984 315.515 185.598 309.358 185.333C305.741 185.177 301.682 183.582 297.406 180.24C298.279 177.337 299.963 175.537 302.139 174.338C311.473 180.96 317.628 174.554 315.397 164.359C317.526 162.523 319.965 161.77 322.462 161.536L322.457 161.525Z" fill="#FFF8F5"/>
<path d="M323.381 166.59C323.722 170.187 323.343 173.436 322.364 176.181C320.281 181.984 315.516 185.598 309.358 185.333C307.206 185.242 304.899 184.637 302.494 183.463C304.175 181.23 306.091 179.048 308.227 176.97C312.124 177.437 314.826 174.995 315.62 170.936C318.177 169.198 320.8 167.736 323.398 166.596L323.381 166.59Z" fill="white" stroke="black" stroke-width="2.52" stroke-miterlimit="10"/>
<path fill-rule="evenodd" clip-rule="evenodd" d="M282.809 173.426C278.487 167.744 257.924 161.482 254.358 164.279C253.388 183.834 249.507 209.614 245.45 219.618C256.425 223.121 278.198 221.861 287.711 219.379C282.645 209.903 281.826 180.671 282.809 173.414V173.426Z" fill="white" stroke="#020202" stroke-width="2.52" stroke-miterlimit="10"/>
<path fill-rule="evenodd" clip-rule="evenodd" d="M303.788 136.546C309.206 135.047 314.901 138.575 316.514 144.409C318.127 150.255 315.052 156.202 309.634 157.689C304.216 159.188 298.521 155.66 296.908 149.827C295.296 143.993 298.37 138.033 303.788 136.546Z" fill="white" stroke="#020202" stroke-width="2.52" stroke-miterlimit="10"/>
<path fill-rule="evenodd" clip-rule="evenodd" d="M254.346 164.279C233.291 175.342 225.946 133.988 252.582 144.963C259.26 134.618 271.469 132.665 272.603 113.929C277.177 113.614 281.65 113.69 286.01 114.269C296.052 115.592 304.507 122.333 308.236 131.758C318.089 156.656 306.787 182.158 290.747 187.551C279.533 191.331 267.148 181.755 254.333 164.291L254.346 164.279Z" fill="white" stroke="#020202" stroke-width="2.52" stroke-miterlimit="10"/>
<path d="M241.406 152.8C240.738 153.191 239.894 152.977 239.491 152.309C239.1 151.641 239.314 150.797 239.982 150.394C240.234 150.242 240.499 150.104 240.763 149.978C242.628 149.071 244.669 148.768 246.622 149.31C248.563 149.839 250.364 151.187 251.763 153.544C251.939 153.833 252.103 154.148 252.267 154.476C252.494 154.892 252.519 155.408 252.267 155.849C251.889 156.517 251.032 156.744 250.364 156.366C249.533 155.887 248.752 155.572 248.021 155.383C247.29 155.194 246.597 155.156 245.98 155.219C245.211 155.308 244.531 154.753 244.442 153.985C244.354 153.216 244.909 152.536 245.677 152.447C246.093 152.397 246.509 152.384 246.95 152.41C246.61 152.221 246.257 152.069 245.891 151.969C244.631 151.616 243.271 151.843 241.985 152.46C241.796 152.548 241.607 152.649 241.406 152.775V152.8Z" fill="black"/>
<path d="M253.174 165.022C252.758 164.367 252.96 163.51 253.615 163.107C254.27 162.691 255.127 162.893 255.53 163.548C257.697 166.988 260.318 170.529 263.481 173.905C266.643 177.27 270.335 180.47 274.669 183.217C275.312 183.633 275.514 184.489 275.098 185.132C274.682 185.775 273.825 185.976 273.183 185.56C268.634 182.662 264.766 179.323 261.465 175.808C258.163 172.293 255.442 168.613 253.186 165.035L253.174 165.022Z" fill="black"/>
<path d="M254.647 173.851C250.753 179.152 246.13 182.627 241.609 184.176C234.986 186.464 228.407 184.808 224.265 179.154C221.83 175.843 220.36 171.11 220.283 164.947C223.477 163.669 226.271 163.872 228.877 164.942C229.639 177.907 239.694 178.806 247.134 169.586C250.276 170.173 252.672 171.782 254.659 173.839L254.647 173.851Z" fill="#FFF8F5"/>
<path d="M250.817 178.271C247.878 181.127 244.712 183.111 241.597 184.176C234.974 186.464 228.395 184.808 224.253 179.154C222.807 177.181 221.708 174.72 221.031 171.749C224.196 171.643 227.495 171.791 230.854 172.216C233.207 176.005 237.293 176.668 241.445 174.471C244.807 175.501 247.952 176.781 250.817 178.271Z" fill="white" stroke="black" stroke-width="2.52" stroke-miterlimit="10"/>
<path fill-rule="evenodd" clip-rule="evenodd" d="M275.313 508.271L246.862 507.641L244.871 587.349C269.97 597.227 419.142 600.692 432.75 573.275C326.305 547.558 337.38 461.639 275.313 508.271Z" fill="white" stroke="black" stroke-width="2.52" stroke-miterlimit="10"/>
<path fill-rule="evenodd" clip-rule="evenodd" d="M392.581 590.007C413.22 586.656 428.781 581.288 432.75 573.275C416.004 569.23 402.157 563.686 390.489 557.411C389.229 561.645 388.549 566.181 388.549 570.893C388.549 577.76 389.998 584.249 392.581 590.007Z" fill="white" stroke="#231F20" stroke-width="2.52" stroke-miterlimit="10"/>
<path d="M397.066 432.418C389.109 423.5 375.955 414.998 351.473 408.293C415.741 385.789 463.119 384.347 493.536 394.99C508.97 400.39 520.012 408.89 526.726 419.308C533.438 429.722 535.874 442.128 533.968 455.436C530.152 482.085 508.903 512.375 469.728 537.082C430.758 561.66 374.137 580.646 299.647 584.944L297.698 506.904C298.895 506.315 301.137 505.378 304.248 504.152C307.865 502.727 312.582 500.94 318.023 498.904C322.328 497.293 327.087 495.527 332.108 493.663C339.769 490.819 348.04 487.749 356.241 484.659C369.821 479.543 383.241 474.362 393.443 470.046C398.541 467.888 402.855 465.939 405.989 464.315C407.554 463.505 408.848 462.764 409.806 462.108C410.285 461.781 410.699 461.461 411.027 461.153C411.34 460.858 411.644 460.508 411.811 460.111L411.986 459.693L411.788 459.286C410.808 457.27 409.907 455.139 408.972 452.931C406.233 446.452 403.209 439.303 397.066 432.418Z" fill="#754DD4" stroke="black" stroke-width="2"/>
<path d="M438.786 480.982C399.782 498.6 351.323 510.677 297.895 514.842L297.698 506.916C298.895 506.327 301.137 505.391 304.248 504.165C307.865 502.74 312.582 500.953 318.023 498.917C322.328 497.306 327.087 495.539 332.108 493.675C339.769 490.832 348.04 487.761 356.241 484.672C369.821 479.556 383.241 474.375 393.443 470.058C398.541 467.901 402.855 465.951 405.989 464.328C407.554 463.517 408.848 462.776 409.806 462.121C410.285 461.793 410.699 461.474 411.027 461.165C411.34 460.87 411.644 460.521 411.811 460.123L411.986 459.706L411.788 459.299C410.808 457.283 409.907 455.152 408.973 452.943C406.233 446.465 403.209 439.315 397.066 432.431C389.109 423.512 375.955 415.011 351.473 408.305C396.879 392.406 433.863 387.02 462.393 388.994C491.187 390.986 511.284 400.464 522.817 414.097C507.216 440.278 477.762 463.377 438.786 480.982Z" fill="#754DD4" stroke="black" stroke-width="2"/>
<path d="M359.735 480.381L359.735 480.382C360.449 483.96 359.65 487.906 357.544 492.174C355.438 496.442 352.058 500.96 347.728 505.633C339.068 514.979 326.741 524.801 313.646 534.319C304.764 540.775 295.564 547.066 286.942 552.962C282.851 555.759 278.89 558.467 275.155 561.062C269.36 565.089 264.108 568.841 259.78 572.216C255.655 575.433 252.322 578.342 250.154 580.845C191.816 582.838 147.859 581.163 111.049 570.963C65.2736 558.282 35.1357 538.199 18.6892 516.421C2.25663 494.661 -0.52104 471.212 8.35132 451.561C17.2344 431.886 37.8916 415.809 68.7437 409.054C99.5922 402.3 140.581 404.887 189.926 422.525L190.242 422.638L190.562 422.537C199.202 419.829 213.539 419.223 230.433 420.609C247.29 421.993 266.573 425.35 285.04 430.482C303.514 435.616 321.124 442.513 334.662 450.955C348.234 459.419 357.53 469.317 359.735 480.381Z" fill="url(#paint0_linear_33_2396)" stroke="black" stroke-width="2"/>
<path fill-rule="evenodd" clip-rule="evenodd" d="M268.232 506.936L296.683 506.306L298.674 586.013C273.574 595.892 124.403 599.357 110.795 571.939C217.24 546.223 206.164 460.303 268.232 506.936Z" fill="white" stroke="black" stroke-width="2.52" stroke-miterlimit="10"/>
<path fill-rule="evenodd" clip-rule="evenodd" d="M150.964 588.672C130.325 585.32 114.764 579.953 110.795 571.939C127.54 567.895 141.388 562.35 153.055 556.076C154.315 560.309 154.996 564.845 154.996 569.558C154.996 576.425 153.547 582.914 150.964 588.672Z" fill="white" stroke="#231F20" stroke-width="2.52" stroke-miterlimit="10"/>
<path fill-rule="evenodd" clip-rule="evenodd" d="M199.562 519.158C221.75 496.15 233.619 480.929 268.232 506.936C260.205 518.755 244.922 526.743 227.382 526.743C216.962 526.743 207.348 523.921 199.562 519.158Z" fill="white" stroke="#231F20" stroke-width="2.52" stroke-miterlimit="10"/>
<path d="M299.732 505.084C299.014 505.373 298.208 505.033 297.918 504.315C297.628 503.597 297.968 502.79 298.686 502.501L426.765 450.261C427.484 449.971 428.29 450.311 428.58 451.03C428.87 451.748 428.529 452.554 427.811 452.844L299.732 505.084Z" fill="black"/>
<path d="M110.681 459.131C109.963 458.854 109.61 458.048 109.887 457.329C110.165 456.611 110.971 456.258 111.689 456.536L217.391 497.536C218.109 497.813 218.462 498.62 218.184 499.338C217.907 500.056 217.101 500.409 216.383 500.132L110.681 459.131Z" fill="black"/>
<path fill-rule="evenodd" clip-rule="evenodd" d="M313.1 243.155C319.891 233.541 316.174 218.547 313.541 212.638C281.663 211.113 251.637 209.702 226.198 206.212C221.095 212.965 218.02 234.335 223.791 245.965C164.206 255.793 -20.0567 418.03 158.044 458.552C473.12 555.534 554.226 345.278 313.087 243.142L313.1 243.155Z" fill="white" stroke="black" stroke-width="2.52" stroke-miterlimit="10"/>
<path d="M230.128 247.956C229.435 247.628 229.133 246.796 229.46 246.103C229.788 245.41 230.62 245.108 231.313 245.436C236.075 247.666 246.47 249.594 257.155 250.715C268.029 251.849 279.13 252.139 284.837 251.03C285.593 250.891 286.324 251.383 286.463 252.139C286.601 252.895 286.11 253.626 285.354 253.764C279.382 254.923 267.966 254.646 256.853 253.487C245.903 252.34 235.168 250.324 230.116 247.956H230.128Z" fill="black"/>
<path d="M189.355 297.574C189.469 296.818 190.187 296.289 190.943 296.403C191.699 296.516 192.228 297.234 192.115 297.99L176.339 409.487C176.226 410.243 175.508 410.773 174.752 410.659C174.147 410.571 173.693 410.092 173.593 409.525C173.278 408.379 171.803 405.052 171.362 403.931C167.129 393.158 157.767 385.157 146.78 380.571C135.73 375.972 123.079 374.825 112.306 377.786C110.945 378.164 109.597 378.605 108.262 379.134C107.543 379.411 106.737 379.058 106.46 378.34C106.183 377.622 106.535 376.816 107.254 376.539C108.64 375.997 110.089 375.518 111.588 375.102C122.953 371.977 136.271 373.174 147.863 378C159.002 382.637 168.578 390.651 173.353 401.436L189.38 297.574H189.355Z" fill="black"/>
<path d="M338.639 306.823C338.488 306.067 338.967 305.336 339.723 305.172C340.479 305.021 341.21 305.5 341.373 306.256L359.102 391.696C359.253 392.452 358.774 393.183 358.018 393.347C357.262 393.511 356.531 393.019 356.367 392.263L338.639 306.823Z" fill="black"/>
<path fill-rule="evenodd" clip-rule="evenodd" d="M158.058 458.564L175.395 410.684L222.368 421.659L278.564 456.095C275.464 461.462 273.285 465.998 265.372 466.402C269.454 470.32 276.687 471.933 279.433 474.592C275.628 483.714 259.664 481.118 257.409 479.972C243.082 495.243 217.769 477.25 208.13 473.936C202.296 474.516 168.931 471.089 158.07 458.577L158.058 458.564Z" fill="white" stroke="black" stroke-width="2.52" stroke-miterlimit="10"/>
<path d="M217.492 456.108C216.85 455.692 216.648 454.835 217.064 454.192C217.48 453.55 218.337 453.348 218.979 453.764L258.14 478.8C258.783 479.216 258.984 480.073 258.568 480.715C258.153 481.358 257.296 481.56 256.653 481.144L217.492 456.108Z" fill="black"/>
<path d="M223.389 441.013C222.771 440.546 222.645 439.677 223.099 439.06C223.565 438.442 224.435 438.316 225.052 438.77C229.613 442.184 240.764 449.417 251.89 456.41C264.717 464.474 277.468 472.185 279.988 473.319C280.694 473.634 281.009 474.453 280.694 475.159C280.379 475.864 279.56 476.179 278.854 475.864C276.208 474.68 263.318 466.88 250.403 458.779C239.202 451.735 227.975 444.452 223.389 441.025V441.013Z" fill="black"/>
<path d="M230.722 428.413C230.067 428.009 229.853 427.153 230.256 426.497C230.659 425.842 231.516 425.628 232.171 426.031L279.295 454.898C279.95 455.301 280.164 456.158 279.761 456.813C279.358 457.468 278.501 457.682 277.846 457.279L230.722 428.413Z" fill="black"/>
<path fill-rule="evenodd" clip-rule="evenodd" d="M356.696 245.36C362.026 248.333 364.395 254.23 361.988 258.527C359.594 262.823 353.32 263.894 348.003 260.921C342.673 257.947 340.304 252.05 342.71 247.754C345.117 243.457 351.379 242.386 356.696 245.36Z" fill="white" stroke="black" stroke-width="2.52" stroke-miterlimit="10"/>
<path fill-rule="evenodd" clip-rule="evenodd" d="M384.933 254.974C376.579 250.916 353.899 249.026 341.312 251.206C334.319 252.416 337.822 266.087 341.841 267.259C338.842 271.82 338.716 279.644 342.786 285.503C340.506 289.787 341.577 298.507 345.672 302.274C349.943 317.092 357.314 317.671 365.554 318.276L365.126 454.066C445.212 452.239 427.609 359.415 401.49 295.47L384.946 254.961L384.933 254.974Z" fill="white" stroke="black" stroke-width="2.52" stroke-miterlimit="10"/>
<path d="M341.967 268.645C341.198 268.708 340.531 268.141 340.468 267.372C340.405 266.603 340.972 265.936 341.74 265.873C346.062 265.507 351.518 265.721 356.797 266.2C363.601 266.83 370.141 267.901 373.656 268.796C374.399 268.985 374.853 269.741 374.677 270.484C374.5 271.228 373.732 271.681 372.988 271.492C369.548 270.623 363.185 269.564 356.545 268.96C351.43 268.493 346.15 268.292 341.967 268.645Z" fill="black"/>
<path d="M342.9 286.852C342.131 286.915 341.463 286.348 341.4 285.579C341.337 284.81 341.904 284.143 342.673 284.08C346.919 283.714 351.959 283.928 356.835 284.42C363.337 285.062 369.523 286.209 373.102 287.116C373.845 287.305 374.299 288.061 374.122 288.805C373.933 289.548 373.177 290.002 372.434 289.825C368.944 288.943 362.896 287.834 356.571 287.204C351.871 286.738 346.995 286.524 342.912 286.877L342.9 286.852Z" fill="black"/>
<path d="M345.659 303.66C344.891 303.66 344.273 303.03 344.273 302.261C344.273 301.493 344.903 300.875 345.672 300.875C350.359 300.9 355.336 301.253 359.935 301.77C365.026 302.349 369.688 303.156 372.976 303.987C373.72 304.176 374.173 304.932 373.997 305.676C373.808 306.419 373.052 306.873 372.308 306.696C369.121 305.89 364.597 305.109 359.645 304.554C355.097 304.038 350.208 303.698 345.672 303.672L345.659 303.66Z" fill="black"/>
<path fill-rule="evenodd" clip-rule="evenodd" d="M326.935 335.727H526.972L456.74 484.835H256.715L326.935 335.727Z" fill="white"/>
<path d="M327.175 334.328H529.405L457.862 486.234H254.75C278.589 435.595 302.441 384.955 326.293 334.328H327.175ZM525.007 337.126H328.057L259.147 483.449H456.098L525.007 337.126Z" fill="black"/>
<path d="M199.737 486.234C198.969 486.234 198.339 485.604 198.339 484.835C198.339 484.067 198.969 483.437 199.737 483.437H456.752C457.521 483.437 458.151 484.067 458.151 484.835C458.151 485.604 457.521 486.234 456.752 486.234H199.737Z" fill="#1A1A1A"/>
<path d="M392.076 422.151C398.631 422.151 403.945 416.836 403.945 410.281C403.945 403.726 398.631 398.412 392.076 398.412C385.521 398.412 380.207 403.726 380.207 410.281C380.207 416.836 385.521 422.151 392.076 422.151Z" fill="black"/>
</g>
<defs>
<linearGradient id="paint0_linear_33_2396" x1="181.69" y1="404.625" x2="181.69" y2="582.58" gradientUnits="userSpaceOnUse">
<stop stop-color="#754DD4"/>
<stop offset="1" stop-color="#3D286E"/>
</linearGradient>
<clipPath id="clip0_33_2396">
<rect width="538" height="630" fill="white"/>
</clipPath>
</defs>
</svg>
