<svg width="32" height="32" viewBox="0 0 32 32" fill="none" xmlns="http://www.w3.org/2000/svg">
<path d="M16.0003 8C12.4403 8 10.227 9.77333 9.33366 13.3333C10.667 11.56 12.227 10.8933 14.0003 11.3333C15.0137 11.5867 15.747 12.32 16.547 13.1333C17.8537 14.4667 19.3337 16 22.667 16C26.227 16 28.4403 14.2267 29.3337 10.6667C28.0003 12.44 26.4403 13.1067 24.667 12.6667C23.6537 12.4133 22.9337 11.68 22.1203 10.8667C20.8137 9.53333 19.3337 8 16.0003 8ZM9.33366 16C5.77366 16 3.56033 17.7733 2.66699 21.3333C4.00033 19.56 5.56033 18.8933 7.33366 19.3333C8.34699 19.5867 9.06699 20.32 9.88032 21.1333C11.187 22.4667 12.667 24 16.0003 24C19.5603 24 21.7737 22.2267 22.667 18.6667C21.3337 20.44 19.7737 21.1067 18.0003 20.6667C16.987 20.4133 16.267 19.68 15.4537 18.8667C14.147 17.5333 12.667 16 9.33366 16Z" fill="black"/>
</svg>
