<svg width="33" height="32" viewBox="0 0 33 32" fill="none" xmlns="http://www.w3.org/2000/svg">
<path d="M16.5003 13.48C17.8737 13.48 18.9937 14.6 18.9937 16C18.9937 17.3333 17.8737 18.4666 16.5003 18.4666C15.127 18.4666 14.007 17.3333 14.007 16C14.007 14.6 15.127 13.48 16.5003 13.48ZM10.327 26.6666C11.167 27.1733 13.007 26.4 15.127 24.4C14.4337 23.6133 13.7537 22.76 13.1137 21.8666C12.0203 21.76 10.9403 21.6 9.91366 21.3866C9.23366 24.24 9.48699 26.2 10.327 26.6666ZM11.2737 19.0133L10.887 18.3333C10.7403 18.72 10.5937 19.1066 10.5003 19.48C10.8603 19.56 11.2603 19.6266 11.6737 19.6933C11.5403 19.4666 11.407 19.24 11.2737 19.0133ZM19.9937 18L21.0737 16L19.9937 14C19.5937 13.2933 19.167 12.6666 18.7803 12.04C18.0603 12 17.3003 12 16.5003 12C15.7003 12 14.9403 12 14.2203 12.04C13.8337 12.6666 13.407 13.2933 13.007 14L11.927 16L13.007 18C13.407 18.7066 13.8337 19.3333 14.2203 19.96C14.9403 20 15.7003 20 16.5003 20C17.3003 20 18.0603 20 18.7803 19.96C19.167 19.3333 19.5937 18.7066 19.9937 18ZM16.5003 9.03996C16.247 9.33329 15.9803 9.63996 15.7137 9.99996C15.9803 9.99996 16.2337 9.99996 16.5003 9.99996C16.767 9.99996 17.0203 9.99996 17.287 9.99996C17.0203 9.63996 16.7537 9.33329 16.5003 9.03996ZM16.5003 22.96C16.7537 22.6666 17.0203 22.36 17.287 22C17.0203 22 16.767 22 16.5003 22C16.2337 22 15.9803 22 15.7137 22C15.9803 22.36 16.247 22.6666 16.5003 22.96ZM22.6603 5.33329C21.8337 4.82662 19.9937 5.59996 17.8737 7.59996C18.567 8.38662 19.247 9.23996 19.887 10.1333C20.9803 10.24 22.0603 10.4 23.087 10.6133C23.767 7.75996 23.5137 5.79996 22.6603 5.33329ZM21.727 12.9866L22.1137 13.6666C22.2603 13.28 22.407 12.8933 22.5003 12.52C22.1403 12.44 21.7403 12.3733 21.327 12.3066C21.4603 12.5333 21.5937 12.76 21.727 12.9866ZM23.6603 3.58662C25.6203 4.70662 25.8337 7.65329 25.007 11.0933C28.3937 12.0933 30.8337 13.7466 30.8337 16C30.8337 18.2533 28.3937 19.9066 25.007 20.9066C25.8337 24.3466 25.6203 27.2933 23.6603 28.4133C21.7137 29.5333 19.0603 28.2533 16.5003 25.8133C13.9403 28.2533 11.287 29.5333 9.32699 28.4133C7.38032 27.2933 7.16699 24.3466 7.99366 20.9066C4.60699 19.9066 2.16699 18.2533 2.16699 16C2.16699 13.7466 4.60699 12.0933 7.99366 11.0933C7.16699 7.65329 7.38032 4.70662 9.32699 3.58662C11.287 2.46662 13.9403 3.74662 16.5003 6.18662C19.0603 3.74662 21.7137 2.46662 23.6603 3.58662ZM23.2737 16C23.727 17 24.127 18 24.4603 19.0133C27.2603 18.1733 28.8337 16.9733 28.8337 16C28.8337 15.0266 27.2603 13.8266 24.4603 12.9866C24.127 14 23.727 15 23.2737 16ZM9.72699 16C9.27366 15 8.87366 14 8.54033 12.9866C5.74033 13.8266 4.16699 15.0266 4.16699 16C4.16699 16.9733 5.74033 18.1733 8.54033 19.0133C8.87366 18 9.27366 17 9.72699 16ZM21.727 19.0133C21.5937 19.24 21.4603 19.4666 21.327 19.6933C21.7403 19.6266 22.1403 19.56 22.5003 19.48C22.407 19.1066 22.2603 18.72 22.1137 18.3333L21.727 19.0133ZM17.8737 24.4C19.9937 26.4 21.8337 27.1733 22.6603 26.6666C23.5137 26.2 23.767 24.24 23.087 21.3866C22.0603 21.6 20.9803 21.76 19.887 21.8666C19.247 22.76 18.567 23.6133 17.8737 24.4ZM11.2737 12.9866C11.407 12.76 11.5403 12.5333 11.6737 12.3066C11.2603 12.3733 10.8603 12.44 10.5003 12.52C10.5937 12.8933 10.7403 13.28 10.887 13.6666L11.2737 12.9866ZM15.127 7.59996C13.007 5.59996 11.167 4.82662 10.327 5.33329C9.48699 5.79996 9.23366 7.75996 9.91366 10.6133C10.9403 10.4 12.0203 10.24 13.1137 10.1333C13.7537 9.23996 14.4337 8.38662 15.127 7.59996Z" fill="black"/>
</svg>
