<svg width="33" height="32" viewBox="0 0 33 32" fill="none" xmlns="http://www.w3.org/2000/svg">
<path d="M16.2203 15.3334H13.4603V10.9201H16.7537C18.4337 10.9201 19.367 11.6667 19.367 13.0401C19.367 14.5334 18.2603 15.3334 16.2203 15.3334ZM16.7137 16.8401H13.4603V21.6934H16.8737C18.9537 21.6934 20.047 20.8534 20.047 19.2534C20.047 17.6534 18.9137 16.8401 16.7137 16.8401ZM29.8337 7.08008V24.9201C29.8337 27.3334 27.8337 29.3334 25.4203 29.3334H7.58033C5.16699 29.3334 3.16699 27.3334 3.16699 24.9201V7.08008C3.16699 4.66675 5.16699 2.66675 7.58033 2.66675H25.4203C27.8337 2.66675 29.8337 4.66675 29.8337 7.08008ZM21.8337 19.3334C21.8337 17.4934 20.607 16.1734 18.727 15.9334V15.8534C20.0603 15.6134 21.1137 14.2801 21.1137 12.8401C21.1137 10.7734 19.5137 9.40008 17.167 9.40008H11.7403V23.2134H17.127C20.0737 23.2134 21.8337 21.7601 21.8337 19.3334Z" fill="white"/>
</svg>
